<mxfile host="app.diagrams.net" modified="2020-04-07T11:50:12.549Z" agent="5.0 (Windows NT 10.0; Win64; x64) AppleWebKit/537.36 (KHTML, like Gecko) Chrome/80.0.3987.149 Safari/537.36" etag="16r9Kz0s6UYWgJ_-7UKb" version="12.9.4" type="github">
  <diagram id="kbm905aHLV5Dr9nUJAch" name="Page-1">
    <mxGraphModel dx="4403" dy="3835" grid="1" gridSize="10" guides="1" tooltips="1" connect="1" arrows="1" fold="1" page="1" pageScale="1" pageWidth="827" pageHeight="1169" math="0" shadow="0">
      <root>
        <mxCell id="0" />
        <mxCell id="1" parent="0" />
        <mxCell id="esOJimNZTuqzEGKTnxW6-58" value="" style="rounded=0;whiteSpace=wrap;html=1;fontFamily=Verdana;dashed=1;dashPattern=1 1;" vertex="1" parent="1">
          <mxGeometry x="-960" y="-1550" width="2270" height="460" as="geometry" />
        </mxCell>
        <mxCell id="G_mRowMAx6_Zk3fWA19y-172" value="可视化场景" style="rounded=1;whiteSpace=wrap;html=1;labelPosition=center;verticalLabelPosition=top;align=center;verticalAlign=bottom;fontFamily=Verdana;" parent="1" vertex="1">
          <mxGeometry x="340" y="270" width="600" height="300" as="geometry" />
        </mxCell>
        <mxCell id="G_mRowMAx6_Zk3fWA19y-164" value="3D场景" style="rounded=1;whiteSpace=wrap;html=1;labelPosition=center;verticalLabelPosition=top;align=center;verticalAlign=bottom;fontFamily=Verdana;" parent="1" vertex="1">
          <mxGeometry x="-420" y="270" width="700" height="300" as="geometry" />
        </mxCell>
        <mxCell id="G_mRowMAx6_Zk3fWA19y-107" value="地图树" style="rounded=1;whiteSpace=wrap;html=1;labelPosition=center;verticalLabelPosition=top;align=center;verticalAlign=bottom;fontFamily=Verdana;" parent="1" vertex="1">
          <mxGeometry x="-405.5" y="340" width="415.5" height="220" as="geometry" />
        </mxCell>
        <mxCell id="UeCTLoyQdsgvgEPBuvyG-19" value="" style="group;fontFamily=Verdana;" parent="1" vertex="1" connectable="0">
          <mxGeometry x="-490" y="510" width="760" height="310" as="geometry" />
        </mxCell>
        <mxCell id="Kp7RcIrqSu2gTxTqtwUE-7" value="" style="rounded=1;whiteSpace=wrap;html=1;fontFamily=Verdana;" parent="UeCTLoyQdsgvgEPBuvyG-19" vertex="1">
          <mxGeometry x="80" y="70" width="680" height="240" as="geometry" />
        </mxCell>
        <mxCell id="Kp7RcIrqSu2gTxTqtwUE-17" value="相机" style="rounded=0;whiteSpace=wrap;html=1;fontSize=12;fontFamily=Verdana;" parent="UeCTLoyQdsgvgEPBuvyG-19" vertex="1">
          <mxGeometry x="100" y="100" width="60" height="180" as="geometry" />
        </mxCell>
        <mxCell id="Kp7RcIrqSu2gTxTqtwUE-18" value="灯光" style="rounded=0;whiteSpace=wrap;html=1;fontSize=12;fontFamily=Verdana;" parent="UeCTLoyQdsgvgEPBuvyG-19" vertex="1">
          <mxGeometry x="170" y="100" width="60" height="180" as="geometry" />
        </mxCell>
        <mxCell id="Kp7RcIrqSu2gTxTqtwUE-21" value="元素" style="rounded=0;whiteSpace=wrap;html=1;fontSize=18;labelPosition=center;verticalLabelPosition=top;align=center;verticalAlign=bottom;fontFamily=Verdana;" parent="UeCTLoyQdsgvgEPBuvyG-19" vertex="1">
          <mxGeometry x="320" y="100" width="420" height="180" as="geometry" />
        </mxCell>
        <mxCell id="Kp7RcIrqSu2gTxTqtwUE-28" value="图" style="rounded=0;whiteSpace=wrap;html=1;fontSize=12;fontFamily=Verdana;" parent="UeCTLoyQdsgvgEPBuvyG-19" vertex="1">
          <mxGeometry x="380" y="210" width="30" height="60" as="geometry" />
        </mxCell>
        <mxCell id="Kp7RcIrqSu2gTxTqtwUE-29" value="边" style="rounded=0;whiteSpace=wrap;html=1;fontSize=12;fontFamily=Verdana;" parent="UeCTLoyQdsgvgEPBuvyG-19" vertex="1">
          <mxGeometry x="434.5" y="210" width="30" height="60" as="geometry" />
        </mxCell>
        <mxCell id="Kp7RcIrqSu2gTxTqtwUE-32" value="模型" style="rounded=0;whiteSpace=wrap;html=1;fontSize=12;fontFamily=Verdana;" parent="UeCTLoyQdsgvgEPBuvyG-19" vertex="1">
          <mxGeometry x="484.5" y="210" width="30" height="60" as="geometry" />
        </mxCell>
        <mxCell id="Kp7RcIrqSu2gTxTqtwUE-37" value="点" style="rounded=0;whiteSpace=wrap;html=1;fontSize=12;fontFamily=Verdana;" parent="UeCTLoyQdsgvgEPBuvyG-19" vertex="1">
          <mxGeometry x="335" y="210" width="30" height="60" as="geometry" />
        </mxCell>
        <mxCell id="Kp7RcIrqSu2gTxTqtwUE-111" value="动画" style="rounded=0;whiteSpace=wrap;html=1;fontSize=12;fontFamily=Verdana;" parent="UeCTLoyQdsgvgEPBuvyG-19" vertex="1">
          <mxGeometry x="240" y="100" width="60" height="180" as="geometry" />
        </mxCell>
        <mxCell id="G_mRowMAx6_Zk3fWA19y-62" value="平面" style="rounded=0;whiteSpace=wrap;html=1;fontSize=12;fontFamily=Verdana;" parent="UeCTLoyQdsgvgEPBuvyG-19" vertex="1">
          <mxGeometry x="534.5" y="210" width="30" height="60" as="geometry" />
        </mxCell>
        <mxCell id="G_mRowMAx6_Zk3fWA19y-63" value="文字" style="rounded=0;whiteSpace=wrap;html=1;fontSize=12;fontFamily=Verdana;" parent="UeCTLoyQdsgvgEPBuvyG-19" vertex="1">
          <mxGeometry x="574.5" y="210" width="30" height="60" as="geometry" />
        </mxCell>
        <mxCell id="G_mRowMAx6_Zk3fWA19y-81" value="Panel" style="rounded=0;whiteSpace=wrap;html=1;fontSize=12;fontFamily=Verdana;" parent="UeCTLoyQdsgvgEPBuvyG-19" vertex="1">
          <mxGeometry x="614.5" y="210" width="30" height="60" as="geometry" />
        </mxCell>
        <mxCell id="G_mRowMAx6_Zk3fWA19y-82" value="不规则形状" style="rounded=0;whiteSpace=wrap;html=1;fontSize=12;fontFamily=Verdana;" parent="UeCTLoyQdsgvgEPBuvyG-19" vertex="1">
          <mxGeometry x="654.5" y="210" width="30" height="60" as="geometry" />
        </mxCell>
        <mxCell id="G_mRowMAx6_Zk3fWA19y-86" value="复合图层" style="rounded=0;whiteSpace=wrap;html=1;fontSize=12;fontFamily=Verdana;" parent="UeCTLoyQdsgvgEPBuvyG-19" vertex="1">
          <mxGeometry x="335" y="130" width="375" height="60" as="geometry" />
        </mxCell>
        <mxCell id="G_mRowMAx6_Zk3fWA19y-106" value="圆柱" style="rounded=0;whiteSpace=wrap;html=1;fontSize=12;fontFamily=Verdana;" parent="UeCTLoyQdsgvgEPBuvyG-19" vertex="1">
          <mxGeometry x="694.5" y="210" width="30" height="60" as="geometry" />
        </mxCell>
        <mxCell id="G_mRowMAx6_Zk3fWA19y-39" value="react-babylonjs" style="rounded=1;whiteSpace=wrap;html=1;fontFamily=Verdana;" parent="1" vertex="1">
          <mxGeometry x="-414.37" y="930" width="668.87" height="80" as="geometry" />
        </mxCell>
        <mxCell id="G_mRowMAx6_Zk3fWA19y-40" value="react-babylon-spring" style="rounded=1;whiteSpace=wrap;html=1;fontFamily=Verdana;" parent="1" vertex="1">
          <mxGeometry x="-414.37" y="850" width="315" height="50" as="geometry" />
        </mxCell>
        <mxCell id="G_mRowMAx6_Zk3fWA19y-41" value="babylonjs" style="rounded=1;whiteSpace=wrap;html=1;fontFamily=Verdana;" parent="1" vertex="1">
          <mxGeometry x="-414.37" y="1050" width="668.87" height="80" as="geometry" />
        </mxCell>
        <mxCell id="G_mRowMAx6_Zk3fWA19y-43" value="WebGL" style="rounded=1;whiteSpace=wrap;html=1;fontFamily=Verdana;" parent="1" vertex="1">
          <mxGeometry x="-414.37" y="1200" width="668.87" height="60" as="geometry" />
        </mxCell>
        <mxCell id="G_mRowMAx6_Zk3fWA19y-64" value="react-fiber" style="text;html=1;align=center;verticalAlign=middle;resizable=0;points=[];autosize=1;fontFamily=Verdana;" parent="1" vertex="1">
          <mxGeometry x="-303.25" y="1020" width="80" height="20" as="geometry" />
        </mxCell>
        <mxCell id="G_mRowMAx6_Zk3fWA19y-85" value="connect with react-spring" style="text;html=1;align=center;verticalAlign=middle;resizable=0;points=[];autosize=1;fontFamily=Verdana;" parent="1" vertex="1">
          <mxGeometry x="-348.25" y="900" width="170" height="20" as="geometry" />
        </mxCell>
        <mxCell id="Kp7RcIrqSu2gTxTqtwUE-27" value="楼层" style="rounded=0;whiteSpace=wrap;html=1;fontSize=12;fontFamily=Verdana;" parent="1" vertex="1">
          <mxGeometry x="-380.5" y="425" width="285" height="30" as="geometry" />
        </mxCell>
        <mxCell id="Kp7RcIrqSu2gTxTqtwUE-30" value="子仓" style="rounded=0;whiteSpace=wrap;html=1;fontSize=12;fontFamily=Verdana;" parent="1" vertex="1">
          <mxGeometry x="-380.5" y="470" width="112.75" height="30" as="geometry" />
        </mxCell>
        <mxCell id="G_mRowMAx6_Zk3fWA19y-111" value="设备树" style="rounded=1;whiteSpace=wrap;html=1;labelPosition=center;verticalLabelPosition=top;align=center;verticalAlign=bottom;fontFamily=Verdana;" parent="1" vertex="1">
          <mxGeometry x="60" y="340" width="200" height="220" as="geometry" />
        </mxCell>
        <mxCell id="G_mRowMAx6_Zk3fWA19y-113" value="子仓" style="rounded=0;whiteSpace=wrap;html=1;fontSize=12;fontFamily=Verdana;" parent="1" vertex="1">
          <mxGeometry x="-255.5" y="470" width="112.75" height="30" as="geometry" />
        </mxCell>
        <mxCell id="G_mRowMAx6_Zk3fWA19y-140" value="物体" style="rounded=0;whiteSpace=wrap;html=1;fontSize=12;fontFamily=Verdana;" parent="1" vertex="1">
          <mxGeometry x="-380.5" y="510" width="50.5" height="30" as="geometry" />
        </mxCell>
        <mxCell id="G_mRowMAx6_Zk3fWA19y-141" value="物体" style="rounded=0;whiteSpace=wrap;html=1;fontSize=12;fontFamily=Verdana;" parent="1" vertex="1">
          <mxGeometry x="-325.5" y="510" width="50.5" height="30" as="geometry" />
        </mxCell>
        <mxCell id="G_mRowMAx6_Zk3fWA19y-142" value="物体" style="rounded=0;whiteSpace=wrap;html=1;fontSize=12;fontFamily=Verdana;" parent="1" vertex="1">
          <mxGeometry x="-253.25" y="510" width="50.5" height="30" as="geometry" />
        </mxCell>
        <mxCell id="G_mRowMAx6_Zk3fWA19y-144" value="物体" style="rounded=0;whiteSpace=wrap;html=1;fontSize=12;fontFamily=Verdana;" parent="1" vertex="1">
          <mxGeometry x="-188.25" y="510" width="50.5" height="30" as="geometry" />
        </mxCell>
        <mxCell id="G_mRowMAx6_Zk3fWA19y-153" value="" style="group;fontFamily=Verdana;" parent="1" vertex="1" connectable="0">
          <mxGeometry x="-930" y="-1050" width="610" height="360" as="geometry" />
        </mxCell>
        <mxCell id="G_mRowMAx6_Zk3fWA19y-114" value="&lt;div style=&quot;text-align: center&quot;&gt;&lt;b style=&quot;font-size: 20px&quot;&gt;静态地图Store&lt;/b&gt;&lt;br&gt;&lt;/div&gt;" style="shape=cylinder;whiteSpace=wrap;html=1;boundedLbl=1;backgroundOutline=1;labelPosition=center;verticalLabelPosition=top;align=center;verticalAlign=bottom;fontFamily=Verdana;" parent="G_mRowMAx6_Zk3fWA19y-153" vertex="1">
          <mxGeometry width="530" height="360" as="geometry" />
        </mxCell>
        <mxCell id="G_mRowMAx6_Zk3fWA19y-110" value="楼层控制State" style="rounded=1;whiteSpace=wrap;html=1;fontSize=12;fontFamily=Verdana;" parent="G_mRowMAx6_Zk3fWA19y-153" vertex="1">
          <mxGeometry x="230" y="170" width="110" height="60" as="geometry" />
        </mxCell>
        <mxCell id="G_mRowMAx6_Zk3fWA19y-119" value="Actions" style="rounded=0;whiteSpace=wrap;html=1;fontFamily=Verdana;" parent="G_mRowMAx6_Zk3fWA19y-153" vertex="1">
          <mxGeometry x="25.42" y="100" width="474.58" height="45.71" as="geometry" />
        </mxCell>
        <mxCell id="esOJimNZTuqzEGKTnxW6-20" value="地图标准数据State" style="rounded=1;whiteSpace=wrap;html=1;fontFamily=Verdana;" vertex="1" parent="G_mRowMAx6_Zk3fWA19y-153">
          <mxGeometry x="25.42" y="170" width="194.58" height="60" as="geometry" />
        </mxCell>
        <mxCell id="esOJimNZTuqzEGKTnxW6-21" value="相机State" style="rounded=1;whiteSpace=wrap;html=1;fontSize=12;fontFamily=Verdana;" vertex="1" parent="G_mRowMAx6_Zk3fWA19y-153">
          <mxGeometry x="350" y="170" width="150" height="60" as="geometry" />
        </mxCell>
        <mxCell id="esOJimNZTuqzEGKTnxW6-22" value="selectors" style="rounded=0;whiteSpace=wrap;html=1;fontFamily=Verdana;" vertex="1" parent="G_mRowMAx6_Zk3fWA19y-153">
          <mxGeometry x="25.42" y="250" width="480" height="60" as="geometry" />
        </mxCell>
        <mxCell id="G_mRowMAx6_Zk3fWA19y-173" value="静态信息" style="rounded=0;whiteSpace=wrap;html=1;fontFamily=Verdana;" parent="1" vertex="1">
          <mxGeometry x="380" y="350" width="87" height="180" as="geometry" />
        </mxCell>
        <mxCell id="G_mRowMAx6_Zk3fWA19y-176" value="线图" style="rounded=0;whiteSpace=wrap;html=1;fontFamily=Verdana;" parent="1" vertex="1">
          <mxGeometry x="496.79999999999995" y="350" width="87" height="180" as="geometry" />
        </mxCell>
        <mxCell id="G_mRowMAx6_Zk3fWA19y-179" value="Hook: useVData()" style="rounded=0;whiteSpace=wrap;html=1;fontFamily=Verdana;" parent="1" vertex="1">
          <mxGeometry x="484.79229166666664" y="180.00352941176467" width="125.40770833333336" height="54.11764705882352" as="geometry" />
        </mxCell>
        <mxCell id="G_mRowMAx6_Zk3fWA19y-183" value="Hook: useAnimation()" style="rounded=0;whiteSpace=wrap;html=1;fontFamily=Verdana;" parent="1" vertex="1">
          <mxGeometry x="-275.005" y="205.88588235294117" width="137.0625" height="50.73529411764706" as="geometry" />
        </mxCell>
        <mxCell id="G_mRowMAx6_Zk3fWA19y-184" value="Redux: Connect()" style="rounded=0;whiteSpace=wrap;html=1;fontFamily=Verdana;" parent="1" vertex="1">
          <mxGeometry x="348.0022916666666" y="180.00352941176467" width="125.40770833333336" height="54.11764705882352" as="geometry" />
        </mxCell>
        <mxCell id="G_mRowMAx6_Zk3fWA19y-185" value="Redux: Connect()" style="rounded=0;whiteSpace=wrap;html=1;fontFamily=Verdana;" parent="1" vertex="1">
          <mxGeometry x="-417.95770833333336" y="205.8835294117647" width="125.40770833333336" height="54.11764705882352" as="geometry" />
        </mxCell>
        <mxCell id="OYR4AbBBOLj8Olsny7-R-44" value="列表" style="rounded=0;whiteSpace=wrap;html=1;fontFamily=Verdana;" parent="1" vertex="1">
          <mxGeometry x="716.8" y="350" width="87" height="180" as="geometry" />
        </mxCell>
        <mxCell id="OYR4AbBBOLj8Olsny7-R-48" value="饼图" style="rounded=0;whiteSpace=wrap;html=1;fontFamily=Verdana;" parent="1" vertex="1">
          <mxGeometry x="606.8" y="350" width="87" height="180" as="geometry" />
        </mxCell>
        <mxCell id="OYR4AbBBOLj8Olsny7-R-69" style="edgeStyle=orthogonalEdgeStyle;rounded=0;orthogonalLoop=1;jettySize=auto;html=1;fontFamily=Verdana;" parent="1" source="G_mRowMAx6_Zk3fWA19y-114" target="G_mRowMAx6_Zk3fWA19y-185" edge="1">
          <mxGeometry relative="1" as="geometry">
            <Array as="points">
              <mxPoint x="-350" y="-45" />
            </Array>
          </mxGeometry>
        </mxCell>
        <mxCell id="OYR4AbBBOLj8Olsny7-R-72" style="edgeStyle=orthogonalEdgeStyle;rounded=0;orthogonalLoop=1;jettySize=auto;html=1;entryX=0.5;entryY=0;entryDx=0;entryDy=0;fontFamily=Verdana;" parent="1" source="G_mRowMAx6_Zk3fWA19y-114" target="G_mRowMAx6_Zk3fWA19y-179" edge="1">
          <mxGeometry relative="1" as="geometry" />
        </mxCell>
        <mxCell id="OYR4AbBBOLj8Olsny7-R-78" style="edgeStyle=orthogonalEdgeStyle;rounded=0;orthogonalLoop=1;jettySize=auto;html=1;entryX=0.5;entryY=0;entryDx=0;entryDy=0;fontFamily=Verdana;" parent="1" source="G_mRowMAx6_Zk3fWA19y-127" target="G_mRowMAx6_Zk3fWA19y-183" edge="1">
          <mxGeometry relative="1" as="geometry">
            <Array as="points">
              <mxPoint x="-206" y="-150" />
            </Array>
          </mxGeometry>
        </mxCell>
        <mxCell id="esOJimNZTuqzEGKTnxW6-3" value="&lt;span style=&quot;font-size: 20px&quot;&gt;&lt;b&gt;指令控制&lt;/b&gt;&lt;/span&gt;" style="shape=cylinder;whiteSpace=wrap;html=1;boundedLbl=1;backgroundOutline=1;fontFamily=Verdana;labelPosition=center;verticalLabelPosition=top;align=center;verticalAlign=bottom;" vertex="1" parent="1">
          <mxGeometry x="250.44" y="-1040" width="565" height="360" as="geometry" />
        </mxCell>
        <mxCell id="esOJimNZTuqzEGKTnxW6-19" value="" style="group" vertex="1" connectable="0" parent="1">
          <mxGeometry x="-360" y="-1040" width="565" height="350" as="geometry" />
        </mxCell>
        <mxCell id="esOJimNZTuqzEGKTnxW6-9" value="&lt;font style=&quot;font-size: 20px&quot;&gt;&lt;b&gt;设备Store&lt;/b&gt;&lt;/font&gt;" style="shape=cylinder;whiteSpace=wrap;html=1;boundedLbl=1;backgroundOutline=1;labelPosition=center;verticalLabelPosition=top;align=center;verticalAlign=bottom;fontFamily=Verdana;" vertex="1" parent="esOJimNZTuqzEGKTnxW6-19">
          <mxGeometry width="565" height="350" as="geometry" />
        </mxCell>
        <mxCell id="esOJimNZTuqzEGKTnxW6-16" value="actions" style="rounded=0;whiteSpace=wrap;html=1;fontFamily=Verdana;" vertex="1" parent="esOJimNZTuqzEGKTnxW6-19">
          <mxGeometry x="37" y="90" width="503" height="60" as="geometry" />
        </mxCell>
        <mxCell id="esOJimNZTuqzEGKTnxW6-17" value="设备state" style="rounded=1;whiteSpace=wrap;html=1;fontFamily=Verdana;" vertex="1" parent="esOJimNZTuqzEGKTnxW6-19">
          <mxGeometry x="37" y="170" width="503" height="60" as="geometry" />
        </mxCell>
        <mxCell id="esOJimNZTuqzEGKTnxW6-18" value="selectors" style="rounded=0;whiteSpace=wrap;html=1;fontFamily=Verdana;" vertex="1" parent="esOJimNZTuqzEGKTnxW6-19">
          <mxGeometry x="37.44999999999999" y="250" width="503" height="60" as="geometry" />
        </mxCell>
        <mxCell id="esOJimNZTuqzEGKTnxW6-35" value="HTTP Loader" style="rounded=0;whiteSpace=wrap;html=1;fontFamily=Verdana;" vertex="1" parent="1">
          <mxGeometry x="-930" y="-1180" width="1150" height="40" as="geometry" />
        </mxCell>
        <mxCell id="esOJimNZTuqzEGKTnxW6-38" value="WebSocket Live Loader" style="rounded=0;whiteSpace=wrap;html=1;fontFamily=Verdana;" vertex="1" parent="1">
          <mxGeometry x="250.44" y="-1180" width="949.56" height="40" as="geometry" />
        </mxCell>
        <mxCell id="esOJimNZTuqzEGKTnxW6-44" value="全局配置信息" style="ellipse;shape=cloud;whiteSpace=wrap;html=1;fontFamily=Verdana;" vertex="1" parent="1">
          <mxGeometry x="-920" y="-1290" width="120" height="80" as="geometry" />
        </mxCell>
        <mxCell id="esOJimNZTuqzEGKTnxW6-45" value="地图数据" style="ellipse;shape=cloud;whiteSpace=wrap;html=1;fontFamily=Verdana;" vertex="1" parent="1">
          <mxGeometry x="-770" y="-1290" width="120" height="80" as="geometry" />
        </mxCell>
        <mxCell id="esOJimNZTuqzEGKTnxW6-48" value="远程指令" style="ellipse;shape=cloud;whiteSpace=wrap;html=1;fontFamily=Verdana;" vertex="1" parent="1">
          <mxGeometry x="271" y="-1300" width="120" height="80" as="geometry" />
        </mxCell>
        <mxCell id="esOJimNZTuqzEGKTnxW6-51" value="设备数据" style="ellipse;shape=cloud;whiteSpace=wrap;html=1;fontFamily=Verdana;" vertex="1" parent="1">
          <mxGeometry x="-620" y="-1290" width="120" height="80" as="geometry" />
        </mxCell>
        <mxCell id="esOJimNZTuqzEGKTnxW6-53" value="远程指令" style="ellipse;shape=cloud;whiteSpace=wrap;html=1;fontFamily=Verdana;labelPosition=center;verticalLabelPosition=top;align=center;verticalAlign=bottom;" vertex="1" parent="1">
          <mxGeometry x="570" y="-1400" width="580" height="220" as="geometry" />
        </mxCell>
        <mxCell id="G_mRowMAx6_Zk3fWA19y-189" value="Stream2" style="ellipse;whiteSpace=wrap;html=1;aspect=fixed;fontFamily=Verdana;" parent="1" vertex="1">
          <mxGeometry x="804.3774999999999" y="-1309.9982978723403" width="58.723404255319146" height="58.723404255319146" as="geometry" />
        </mxCell>
        <mxCell id="OYR4AbBBOLj8Olsny7-R-1" value="" style="group;fontFamily=Verdana;" parent="1" vertex="1" connectable="0">
          <mxGeometry x="659.9975" y="-1639.9968085106382" width="478.125" height="117.44680851063829" as="geometry" />
        </mxCell>
        <mxCell id="UeCTLoyQdsgvgEPBuvyG-13" value="" style="group;fontFamily=Verdana;" parent="OYR4AbBBOLj8Olsny7-R-1" vertex="1" connectable="0">
          <mxGeometry x="-40" y="99.99723404255319" width="478.125" height="107.6595744680851" as="geometry" />
        </mxCell>
        <mxCell id="UeCTLoyQdsgvgEPBuvyG-3" value="标准动态数据协议" style="rounded=0;whiteSpace=wrap;html=1;fillColor=#ffffff;fontSize=12;labelPosition=center;verticalLabelPosition=top;align=center;verticalAlign=bottom;fontFamily=Verdana;" parent="UeCTLoyQdsgvgEPBuvyG-13" vertex="1">
          <mxGeometry y="29.361702127659573" width="478.125" height="68.51063829787233" as="geometry" />
        </mxCell>
        <mxCell id="Kp7RcIrqSu2gTxTqtwUE-86" value="Metadata" style="rounded=0;whiteSpace=wrap;html=1;fillColor=#ffffff;fontSize=12;dashed=1;fontFamily=Verdana;" parent="UeCTLoyQdsgvgEPBuvyG-13" vertex="1">
          <mxGeometry x="15.89002659574468" y="56.27659574468085" width="75.6658244680851" height="34.25531914893617" as="geometry" />
        </mxCell>
        <mxCell id="Kp7RcIrqSu2gTxTqtwUE-87" value="Message" style="rounded=0;whiteSpace=wrap;html=1;dashed=1;fillColor=#ffffff;fontSize=12;labelPosition=center;verticalLabelPosition=middle;align=center;verticalAlign=middle;fontFamily=Verdana;" parent="UeCTLoyQdsgvgEPBuvyG-13" vertex="1">
          <mxGeometry x="101.72872340425532" y="58.723404255319146" width="68.05651595744682" height="31.80851063829787" as="geometry" />
        </mxCell>
        <mxCell id="OYR4AbBBOLj8Olsny7-R-2" value="Pose" style="rounded=0;whiteSpace=wrap;html=1;dashed=1;fillColor=#ffffff;fontSize=12;labelPosition=center;verticalLabelPosition=middle;align=center;verticalAlign=middle;fontFamily=Verdana;" parent="UeCTLoyQdsgvgEPBuvyG-13" vertex="1">
          <mxGeometry x="183.10685790273553" y="58.723404255319146" width="86.0625" height="31.80851063829787" as="geometry" />
        </mxCell>
        <mxCell id="OYR4AbBBOLj8Olsny7-R-9" value="List" style="rounded=0;whiteSpace=wrap;html=1;dashed=1;fillColor=#ffffff;fontSize=12;labelPosition=center;verticalLabelPosition=middle;align=center;verticalAlign=middle;fontFamily=Verdana;" parent="UeCTLoyQdsgvgEPBuvyG-13" vertex="1">
          <mxGeometry x="284.8355813069909" y="58.723404255319146" width="86.0625" height="31.80851063829787" as="geometry" />
        </mxCell>
        <mxCell id="esOJimNZTuqzEGKTnxW6-50" value="指令" style="rounded=0;whiteSpace=wrap;html=1;dashed=1;fillColor=#ffffff;fontSize=12;labelPosition=center;verticalLabelPosition=middle;align=center;verticalAlign=middle;fontFamily=Verdana;" vertex="1" parent="UeCTLoyQdsgvgEPBuvyG-13">
          <mxGeometry x="382.0655813069909" y="57.50340425531931" width="86.0625" height="31.80851063829787" as="geometry" />
        </mxCell>
        <mxCell id="esOJimNZTuqzEGKTnxW6-55" value="Stream1" style="ellipse;whiteSpace=wrap;html=1;aspect=fixed;fontFamily=Verdana;" vertex="1" parent="1">
          <mxGeometry x="730.0024999999999" y="-1309.9982978723403" width="58.723404255319146" height="58.723404255319146" as="geometry" />
        </mxCell>
        <mxCell id="esOJimNZTuqzEGKTnxW6-56" value="Stream4" style="ellipse;whiteSpace=wrap;html=1;aspect=fixed;fontFamily=Verdana;" vertex="1" parent="1">
          <mxGeometry x="960.5649999999999" y="-1309.9982978723403" width="58.723404255319146" height="58.723404255319146" as="geometry" />
        </mxCell>
        <mxCell id="esOJimNZTuqzEGKTnxW6-57" value="Stream3" style="ellipse;whiteSpace=wrap;html=1;aspect=fixed;fontFamily=Verdana;" vertex="1" parent="1">
          <mxGeometry x="878.7524999999999" y="-1309.9982978723403" width="58.723404255319146" height="58.723404255319146" as="geometry" />
        </mxCell>
        <mxCell id="esOJimNZTuqzEGKTnxW6-59" value="actions" style="rounded=0;whiteSpace=wrap;html=1;fontFamily=Verdana;" vertex="1" parent="1">
          <mxGeometry x="288.79999999999995" y="-950" width="503" height="60" as="geometry" />
        </mxCell>
        <mxCell id="esOJimNZTuqzEGKTnxW6-60" value="state" style="rounded=1;whiteSpace=wrap;html=1;fontFamily=Verdana;" vertex="1" parent="1">
          <mxGeometry x="285.73" y="-870" width="503" height="60" as="geometry" />
        </mxCell>
        <mxCell id="esOJimNZTuqzEGKTnxW6-61" value="selectors" style="rounded=0;whiteSpace=wrap;html=1;fontFamily=Verdana;" vertex="1" parent="1">
          <mxGeometry x="285.73" y="-790" width="503" height="60" as="geometry" />
        </mxCell>
        <mxCell id="G_mRowMAx6_Zk3fWA19y-127" value="&lt;div style=&quot;text-align: center&quot;&gt;&lt;b style=&quot;font-size: 20px&quot;&gt;实时数据&lt;/b&gt;&lt;br&gt;&lt;/div&gt;" style="shape=cylinder;whiteSpace=wrap;html=1;boundedLbl=1;backgroundOutline=1;labelPosition=center;verticalLabelPosition=top;align=center;verticalAlign=bottom;fontFamily=Verdana;" parent="1" vertex="1">
          <mxGeometry x="910.87" y="-1043" width="700" height="370" as="geometry" />
        </mxCell>
        <mxCell id="G_mRowMAx6_Zk3fWA19y-131" value="物体运动时间轴数据" style="rounded=1;whiteSpace=wrap;html=1;fontFamily=Verdana;" parent="1" vertex="1">
          <mxGeometry x="1067.77" y="-877" width="147.29" height="60" as="geometry" />
        </mxCell>
        <mxCell id="G_mRowMAx6_Zk3fWA19y-132" value="可视化数据" style="rounded=1;whiteSpace=wrap;html=1;fontFamily=Verdana;" parent="1" vertex="1">
          <mxGeometry x="933.02" y="-877" width="122.04" height="60" as="geometry" />
        </mxCell>
        <mxCell id="G_mRowMAx6_Zk3fWA19y-135" value="播放控制器" style="rounded=1;whiteSpace=wrap;html=1;fontFamily=Verdana;" parent="1" vertex="1">
          <mxGeometry x="1415.06" y="-877" width="180" height="60" as="geometry" />
        </mxCell>
        <mxCell id="OYR4AbBBOLj8Olsny7-R-40" value="同步器" style="rounded=1;whiteSpace=wrap;html=1;fontFamily=Verdana;" parent="1" vertex="1">
          <mxGeometry x="1225.06" y="-877" width="180.4" height="60" as="geometry" />
        </mxCell>
        <mxCell id="esOJimNZTuqzEGKTnxW6-63" value="" style="rounded=0;whiteSpace=wrap;html=1;fontFamily=Verdana;" vertex="1" parent="1">
          <mxGeometry x="934.94" y="-799" width="662.04" height="94" as="geometry" />
        </mxCell>
        <mxCell id="G_mRowMAx6_Zk3fWA19y-136" value="当前可视化数据" style="rounded=1;whiteSpace=wrap;html=1;fontFamily=Verdana;" parent="1" vertex="1">
          <mxGeometry x="969.9962499999998" y="-782" width="239.93562500000002" height="60" as="geometry" />
        </mxCell>
        <mxCell id="G_mRowMAx6_Zk3fWA19y-137" value="物体当前帧" style="rounded=1;whiteSpace=wrap;html=1;fontFamily=Verdana;" parent="1" vertex="1">
          <mxGeometry x="1226.98" y="-782" width="344.59" height="60" as="geometry" />
        </mxCell>
        <mxCell id="esOJimNZTuqzEGKTnxW6-68" value="actions" style="rounded=0;whiteSpace=wrap;html=1;fontFamily=Verdana;" vertex="1" parent="1">
          <mxGeometry x="933.02" y="-967" width="663.69" height="60" as="geometry" />
        </mxCell>
      </root>
    </mxGraphModel>
  </diagram>
</mxfile>
